{
  "name": "break",
  "bars": 4,
  "tracks": [
    {
      "ableton_name": "Drums",
      "instrument": "drum machine",
      "clip": {
        "length_bars": 2,
        "notes": [
          {
            "pitch": 36,
            "time": 0,
            "duration": 0.25,
            "velocity": 100
          },
          {
            "pitch": 36,
            "time": 4,
            "duration": 0.25,
            "velocity": 95
          },
          {
            "pitch": 36,
            "time": 6.5,
            "duration": 0.25,
            "velocity": 72
          },
          {
            "pitch": 38,
            "time": 2,
            "duration": 0.25,
            "velocity": 90
          },
          {
            "pitch": 38,
            "time": 6,
            "duration": 0.25,
            "velocity": 82
          },
          {
            "pitch": 42,
            "time": 0,
            "duration": 0.25,
            "velocity": 62
          },
          {
            "pitch": 42,
            "time": 1,
            "duration": 0.25,
            "velocity": 55
          },
          {
            "pitch": 42,
            "time": 2,
            "duration": 0.25,
            "velocity": 62
          },
          {
            "pitch": 42,
            "time": 3,
            "duration": 0.25,
            "velocity": 55
          },
          {
            "pitch": 42,
            "time": 4,
            "duration": 0.25,
            "velocity": 62
          },
          {
            "pitch": 42,
            "time": 5,
            "duration": 0.25,
            "velocity": 55
          },
          {
            "pitch": 42,
            "time": 6,
            "duration": 0.25,
            "velocity": 62
          },
          {
            "pitch": 42,
            "time": 7,
            "duration": 0.25,
            "velocity": 55
          }
        ]
      }
    },
    {
      "ableton_name": "Bass",
      "instrument": "sub bass",
      "clip": {
        "length_bars": 2,
        "notes": [
          {
            "pitch": 43,
            "time": 0,
            "duration": 3.5,
            "velocity": 78
          },
          {
            "pitch": 50,
            "time": 4,
            "duration": 2,
            "velocity": 72
          },
          {
            "pitch": 46,
            "time": 6.5,
            "duration": 1.4,
            "velocity": 68
          }
        ]
      }
    },
    {
      "ableton_name": "Lead",
      "instrument": "synth lead",
      "clip": {
        "length_bars": 2,
        "notes": [
          {
            "pitch": 74,
            "time": 1,
            "duration": 0.5,
            "velocity": 58
          },
          {
            "pitch": 79,
            "time": 3.5,
            "duration": 1,
            "velocity": 65
          },
          {
            "pitch": 75,
            "time": 5,
            "duration": 0.5,
            "velocity": 55
          },
          {
            "pitch": 74,
            "time": 6.5,
            "duration": 1.4,
            "velocity": 68
          }
        ]
      }
    },
    {
      "ableton_name": "Chords",
      "instrument": "pad synth",
      "clip": {
        "length_bars": 2,
        "notes": [
          {
            "pitch": 67,
            "time": 0,
            "duration": 7.5,
            "velocity": 52
          },
          {
            "pitch": 70,
            "time": 0,
            "duration": 7.5,
            "velocity": 48
          },
          {
            "pitch": 74,
            "time": 0,
            "duration": 7.5,
            "velocity": 45
          }
        ]
      }
    }
  ]
}